<?xml version="1.0" encoding="utf-8"?>
<!-- Generator: Adobe Illustrator 18.1.1, SVG Export Plug-In . SVG Version: 6.00 Build 0)  -->
<svg version="1.1" id="Vrstva_1" xmlns="http://www.w3.org/2000/svg" xmlns:xlink="http://www.w3.org/1999/xlink" x="0px" y="0px"
	 viewBox="0 0 128 128" enable-background="0 0 128 128" preserveAspectRatio="xMinYMid" xml:space="preserve">
<circle fill="#006954" cx="64" cy="64" r="64"/>
<g>
	<path fill="#FFFFFF" d="M99.7,89.8L82.2,72.3c-2.6,4-6,7.5-10.1,10.1l17.5,17.5c2.8,2.8,7.3,2.8,10.1,0
		C102.5,97.1,102.5,92.5,99.7,89.8L99.7,89.8z M99.7,89.8"/>
	<path fill="#FFFFFF" d="M82.7,54.3c0-15.8-12.8-28.6-28.6-28.6c-15.8,0-28.6,12.8-28.6,28.6c0,15.8,12.8,28.6,28.6,28.6
		C69.9,82.9,82.7,70.1,82.7,54.3L82.7,54.3z M54.2,75.8c-11.8,0-21.4-9.6-21.4-21.4c0-11.8,9.6-21.4,21.4-21.4
		c11.8,0,21.4,9.6,21.4,21.4C75.6,66.1,66,75.8,54.2,75.8L54.2,75.8z M54.2,75.8"/>
	<path fill="#FFFFFF" d="M37.5,54.3h4.8c0-6.6,5.3-11.9,11.9-11.9v-4.8C45,37.7,37.5,45.2,37.5,54.3L37.5,54.3z M37.5,54.3"/>
</g>
<g>
</g>
<g>
</g>
<g>
</g>
<g>
</g>
<g>
</g>
<g>
</g>
</svg>
