<?xml version="1.0" encoding="utf-8"?>
<!-- Generator: Adobe Illustrator 18.1.1, SVG Export Plug-In . SVG Version: 6.00 Build 0)  -->
<svg version="1.1" id="Vrstva_1" xmlns="http://www.w3.org/2000/svg" xmlns:xlink="http://www.w3.org/1999/xlink" x="0px" y="0px"
	 viewBox="0 0 128 128" enable-background="new 0 0 128 128" xml:space="preserve">
<circle fill="#007E59" cx="64" cy="64" r="64"/>
<g>
	<path fill="#FFFFFF" d="M30.3,35h12.2v6.1H30.3V35z M30.3,43.6h12.2V85H30.3V43.6z M32.5,77.3c0,2.1,1.7,3.8,3.8,3.8
		s3.8-1.7,3.8-3.8c0-2.1-1.7-3.8-3.8-3.8S32.5,75.2,32.5,77.3L32.5,77.3z M30.3,92.3h12.2v-4.9H30.3V92.3z M44.9,86.5v5.7h15.8v-5.8
		C60,86,58,85,53.4,85C49,85,46.2,85.9,44.9,86.5L44.9,86.5z M44.9,51.5c1.3,0.6,4.1,1.6,8.5,1.6c4.6,0,6.6-1.1,7.3-1.6v-4.3H44.9
		V51.5z M44.9,54.2v29.7c1.8-0.7,4.6-1.4,8.5-1.4c3.5,0,5.9,0.6,7.3,1.2V54.3c-1.5,0.6-3.8,1.2-7.3,1.2
		C49.5,55.5,46.6,54.8,44.9,54.2L44.9,54.2z M86.5,34.8l-8.3,1.7l1.2,6l8.3-1.7L86.5,34.8z M96.5,83.7l-8.3,1.7l-8.3-40.5l8.3-1.7
		L96.5,83.7z M93.6,76.4c-0.4-2.1-2.1-3.5-3.7-3.1c-1.6,0.3-2.6,2.3-2.1,4.3c0.4,2.1,2.1,3.5,3.7,3.1C93.1,80.4,94.1,78.5,93.6,76.4
		L93.6,76.4z M97,86l-8.3,1.7l1,4.8l8.3-1.7L97,86z M64.3,41.1h12.2V35H64.3V41.1z M64.3,92.3h12.2v-4.9H64.3V92.3z M64.3,78.9h12.2
		V49.7H64.3V78.9z M64.3,85h12.2v-3.7H64.3V85z M64.3,47.2h12.2v-3.7H64.3V47.2z M64.3,47.2"/>
</g>
<g>
</g>
<g>
</g>
<g>
</g>
<g>
</g>
<g>
</g>
<g>
</g>
</svg>
