<?xml version="1.0" encoding="utf-8"?>
<!-- Generator: Adobe Illustrator 18.1.1, SVG Export Plug-In . SVG Version: 6.00 Build 0)  -->
<svg version="1.1" id="Vrstva_1" xmlns="http://www.w3.org/2000/svg" xmlns:xlink="http://www.w3.org/1999/xlink" x="0px" y="0px"
	 viewBox="0 0 128 128" enable-background="new 0 0 128 128" xml:space="preserve">
<circle fill="#747474" cx="64" cy="64" r="64"/>
<g>
	<polygon fill="#FFFFFF" points="98,24.8 102.4,29.1 94.7,43 90.5,43.1 75,59.8 69.2,53.8 85.2,38.1 84.9,33.7 	"/>
	<path fill="#FFFFFF" d="M102.3,89.6L59.1,48.5l-1.2-17.9l-6-7.5L40.3,23c0,0.5,9.6,11.3,9.6,11.3l0.5,3.1l-8.6,9.5l-4-0.8L27.2,36
		l-0.8,10.4l7.3,9.2l16.8,1.4l40,46l3.2-0.3l8.9-8.9L102.3,89.6z M93.6,95.3c-1.4,0-2.5-1.1-2.5-2.5c0-1.4,1.1-2.5,2.5-2.5
		c1.4,0,2.5,1.1,2.5,2.5C96.1,94.2,95,95.3,93.6,95.3z"/>
	<path fill="#FFFFFF" d="M43.9,99.6c-0.6,0.6-1.7,0.7-2.3,0c-0.6-0.6-0.7-1.7,0-2.3L63.4,75L61,72.2L37.4,96.3
		c-0.6,0.6-1.7,0.7-2.3,0c-0.6-0.6-0.7-1.7,0-2.3l23.8-24.3l-2.7-3.1c0.2,0.5,0,1.2-0.4,1.6L33.7,90.7c-0.6,0.6-1.7,0.7-2.3,0
		c-0.6-0.6-0.7-1.7,0-2.3l22.1-22.5c0.5-0.5,1.2-0.6,1.8-0.3l-3.4-3.9L28.6,86.3c0,0-6,8,2.4,15c0,0,7.6,5.2,14.6,2l22.9-22.5
		l-2.9-3.3L43.9,99.6z"/>
</g>
<g>
</g>
<g>
</g>
<g>
</g>
<g>
</g>
<g>
</g>
<g>
</g>
</svg>
