<?xml version="1.0" encoding="utf-8"?>
<!-- Generator: Adobe Illustrator 18.1.1, SVG Export Plug-In . SVG Version: 6.00 Build 0)  -->
<svg version="1.1" id="Vrstva_1" xmlns="http://www.w3.org/2000/svg" xmlns:xlink="http://www.w3.org/1999/xlink" x="0px" y="0px"
	 viewBox="0 0 128 128" enable-background="new 0 0 128 128" xml:space="preserve">
<circle fill="#0C9263" cx="64" cy="64" r="64"/>
<g>
	<polygon fill="#FFFFFF" points="97.4,26 101.9,30.3 94.1,44.2 89.9,44.3 74.4,61 68.6,55 84.6,39.3 84.3,34.9 	"/>
	<path fill="#FFFFFF" d="M101.7,90.8L58.5,49.7l-1.2-17.9l-6-7.5l-11.6-0.2c0,0.5,9.6,11.3,9.6,11.3l0.5,3.1L41.2,48l-4-0.8
		L26.6,37.2l-0.8,10.4l7.3,9.2l16.8,1.4l40,46l3.2-0.3l8.9-8.9L101.7,90.8z M93,96.5c-1.4,0-2.5-1.1-2.5-2.5c0-1.4,1.1-2.5,2.5-2.5
		c1.4,0,2.5,1.1,2.5,2.5C95.5,95.4,94.4,96.5,93,96.5z"/>
	<path fill="#FFFFFF" d="M43.3,100.8c-0.6,0.6-1.7,0.7-2.3,0c-0.6-0.6-0.7-1.7,0-2.3l21.9-22.3l-2.4-2.8L36.8,97.5
		c-0.6,0.6-1.7,0.7-2.3,0c-0.6-0.6-0.7-1.7,0-2.3l23.8-24.3l-2.7-3.1c0.2,0.5,0,1.2-0.4,1.6L33.1,91.9c-0.6,0.6-1.7,0.7-2.3,0
		c-0.6-0.6-0.7-1.7,0-2.3l22.1-22.5c0.5-0.5,1.2-0.6,1.8-0.3l-3.4-3.9L28,87.5c0,0-6,8,2.4,15c0,0,7.6,5.2,14.6,2L67.9,82L65,78.7
		L43.3,100.8z"/>
</g>
<g>
</g>
<g>
</g>
<g>
</g>
<g>
</g>
<g>
</g>
<g>
</g>
</svg>
