<?xml version="1.0" encoding="utf-8"?>
<!-- Generator: Adobe Illustrator 18.1.1, SVG Export Plug-In . SVG Version: 6.00 Build 0)  -->
<svg version="1.1" id="Vrstva_1" xmlns="http://www.w3.org/2000/svg" xmlns:xlink="http://www.w3.org/1999/xlink" x="0px" y="0px"
	 viewBox="0 0 128 128" enable-background="new 0 0 128 128" xml:space="preserve">
<circle fill="#0D8A73" enable-background="new    " cx="64" cy="64" r="64"/>
<path fill-rule="evenodd" clip-rule="evenodd" fill="#FFFFFF" d="M104.4,50.1L66.1,30.9c-0.6-0.3-1.4-0.5-2.1-0.5
	c-0.8,0-1.5,0.2-2.1,0.5L23.6,50.1c-1.6,0.8-2.7,2.4-2.7,4.3c0,1.9,1.1,3.5,2.7,4.3l2.1,1.1v16.8c-1.4,0.8-2.4,2.4-2.4,4.1
	c0,2.6,2.1,4.8,4.8,4.8c2.6,0,4.8-2.1,4.8-4.8c0-1.8-1-3.3-2.4-4.1V62.1l7.2,3.6v15c0,9.2,11.8,16.7,26.3,16.7
	c14.5,0,26.3-7.5,26.3-16.7v-15l14.1-7c1.6-0.8,2.7-2.4,2.7-4.3C107,52.5,106,50.8,104.4,50.1L104.4,50.1z M83.1,80.6
	c0,4.4-8.4,9.6-19.1,9.6c-10.8,0-19.1-5.1-19.1-9.6V69.2l17,8.5c0.7,0.3,1.4,0.5,2.1,0.5c0.8,0,1.5-0.2,2.1-0.5l17-8.5V80.6z
	 M64,70.8L31.1,54.3L64,37.9l32.9,16.5L64,70.8z M64,70.8"/>
<g>
</g>
<g>
</g>
<g>
</g>
<g>
</g>
<g>
</g>
<g>
</g>
</svg>
