<?xml version="1.0" encoding="utf-8"?>
<!-- Generator: Adobe Illustrator 18.1.1, SVG Export Plug-In . SVG Version: 6.00 Build 0)  -->
<svg version="1.1" id="Vrstva_1" xmlns="http://www.w3.org/2000/svg" xmlns:xlink="http://www.w3.org/1999/xlink" x="0px" y="0px"
	 viewBox="0 0 128 128" enable-background="new 0 0 128 128" xml:space="preserve">
<circle fill="#E84538" cx="64" cy="64" r="64"/>
<g>
	<path fill="#FFFFFF" d="M101.8,95.1c0,1.5-0.4,2.8-2.3,2.8H31.7c-1.9,0-3.5-1.6-3.5-3.5V30.5c0-1.9,1.2-2.3,2.8-2.3
		c1.5,0,2.8,0.4,2.8,2.3v58.4c0,1.9,1.6,3.5,3.5,3.5h62.3C101.4,92.3,101.8,93.6,101.8,95.1L101.8,95.1z M101.8,95.1"/>
	<path fill="#FFFFFF" d="M95.3,51.9c0.8,0.5,1.4,0.1,1.3-0.8l-1.3-14.7c-0.1-0.9-0.9-1.4-1.8-1.1l-13.9,5.2c-0.9,0.3-1,1-0.2,1.5
		l2.6,1.6c0.8,0.5,1,1.6,0.5,2.3L72.1,61.8c-0.5,0.8-1.7,1.2-2.6,0.8l-16.3-6.2c-0.9-0.3-2.1,0-2.7,0.7L40.4,69.5
		c-0.6,0.7-1.1,2.1-1.1,3l-0.1,10.1c0,0.9,0.5,1.1,1.1,0.4l13.2-15.3c0.6-0.7,1.8-1,2.7-0.7l16.4,6.2c0.9,0.3,2,0,2.6-0.8l14.7-22
		c0.5-0.8,1.6-1,2.4-0.5L95.3,51.9z M95.3,51.9"/>
</g>
<g>
</g>
<g>
</g>
<g>
</g>
<g>
</g>
<g>
</g>
<g>
</g>
</svg>
