<?xml version="1.0" encoding="utf-8"?>
<!-- Generator: Adobe Illustrator 18.1.1, SVG Export Plug-In . SVG Version: 6.00 Build 0)  -->
<svg version="1.1" id="Vrstva_1" xmlns="http://www.w3.org/2000/svg" xmlns:xlink="http://www.w3.org/1999/xlink" x="0px" y="0px"
	 viewBox="0 0 128 128" preserveAspectRatio="xMinYMid" xml:space="preserve">
<circle fill="#EB5B55" cx="64" cy="64" r="64"/>
<g>
	<path fill="#FFFFFF" d="M68.8,36.1c2.8,0,4.7-2,5.1-4.7l1.4-11.3c0-2.6-2.3-4.7-5.1-4.7H58c-2.8,0-5.1,2.1-5.1,4.7l1.4,11.3
		c0.4,3.1,2.3,4.7,5.1,4.7c2.2,0,2.6-0.7,5-0.7C67,35.5,67.4,36.1,68.8,36.1"/>
	<path fill="#FFFFFF" d="M75.1,67.2L51.1,79.9l-0.7,4l25.2-13.3L75.1,67.2z M75.1,67.2"/>
	<path fill="#FFFFFF" d="M72.7,53L54,62.9l-2.5,14.9l23.3-12.3L72.7,53z M72.7,53"/>
	<path fill="#FFFFFF" d="M54.3,60.7l18-9.5l-0.5-3l-16.9,9L54.3,60.7z M54.3,60.7"/>
	<path fill="#FFFFFF" d="M48.9,100.5l2.7,3.2l27.1-14.4l-2.5-15.1l-26.5,14l-0.9,5.2C48.7,94.5,47.1,98.5,48.9,100.5"/>
	<path fill="#FFFFFF" d="M57,110.1l5.2,6.2c1.8,1.9,2.2,1.9,4,0l13.3-15.8c0.7-0.7,0.9-1.7,0.8-2.7L57,110.1z M57,110.1"/>
	<path fill="#FFFFFF" d="M71.3,44.4l-0.9-5.6c-1.8-1.9-10.5-1.9-12.3,0l-2.3,13.9L71.3,44.4z M71.3,44.4"/>
	<path fill="#FFFFFF" d="M79.4,93.4L79.4,93l-25.4,13.5l1.9,2.3L80,96C79.8,94.9,79.5,94,79.4,93.4"/>
</g>
<g>
</g>
<g>
</g>
<g>
</g>
<g>
</g>
<g>
</g>
<g>
</g>
</svg>
