<?xml version="1.0" encoding="utf-8"?>
<!-- Generator: Adobe Illustrator 18.1.1, SVG Export Plug-In . SVG Version: 6.00 Build 0)  -->
<svg version="1.1" id="Vrstva_1" xmlns="http://www.w3.org/2000/svg" xmlns:xlink="http://www.w3.org/1999/xlink" x="0px" y="0px"
	 viewBox="0 0 128 128" preserveAspectRatio="xMinYMid" xml:space="preserve">
<circle fill="#E74E2E" cx="64" cy="64" r="64"/>
<g>
	<path fill="#FFFFFF" d="M98.3,46.8h-69c-2,0-3.6-1.6-3.6-3.6v0c0-2,1.6-3.6,3.6-3.6h69c2,0,3.6,1.6,3.6,3.6v0
		C101.9,45.2,100.3,46.8,98.3,46.8z"/>
	<circle fill="#FFFFFF" cx="59.6" cy="43.2" r="9.2"/>
	<circle fill="#E74E2E" cx="59.6" cy="43.2" r="4.1"/>
	<path fill="#FFFFFF" d="M98.3,67.7h-69c-2,0-3.6-1.6-3.6-3.6v0c0-2,1.6-3.6,3.6-3.6h69c2,0,3.6,1.6,3.6,3.6v0
		C101.9,66.1,100.3,67.7,98.3,67.7z"/>
	<path fill="#FFFFFF" d="M98.3,88.8h-69c-2,0-3.6-1.6-3.6-3.6v0c0-2,1.6-3.6,3.6-3.6h69c2,0,3.6,1.6,3.6,3.6v0
		C101.9,87.2,100.3,88.8,98.3,88.8z"/>
	<circle fill="#FFFFFF" cx="77.8" cy="64.2" r="9.2"/>
	<circle fill="#E74E2E" cx="77.8" cy="64.2" r="4.1"/>
	<circle fill="#FFFFFF" cx="45.6" cy="85.2" r="9.2"/>
	<circle fill="#E74E2E" cx="45.6" cy="85.2" r="4.1"/>
</g>
<g>
</g>
<g>
</g>
<g>
</g>
<g>
</g>
<g>
</g>
<g>
</g>
</svg>
