<?xml version="1.0" encoding="utf-8"?>
<!-- Generator: Adobe Illustrator 18.1.1, SVG Export Plug-In . SVG Version: 6.00 Build 0)  -->
<svg version="1.1" id="Vrstva_1" xmlns="http://www.w3.org/2000/svg" xmlns:xlink="http://www.w3.org/1999/xlink" x="0px" y="0px"
	 viewBox="0 0 128 128" enable-background="new 0 0 128 128" xml:space="preserve">
<circle fill="#747474" cx="64" cy="64" r="64"/>
<path fill="#FFFFFF" d="M98.8,46.8h-69c-2,0-3.6-1.6-3.6-3.6v0c0-2,1.6-3.6,3.6-3.6h69c2,0,3.6,1.6,3.6,3.6v0
	C102.3,45.2,100.7,46.8,98.8,46.8z"/>
<circle fill="#FFFFFF" cx="60.1" cy="43.2" r="9.2"/>
<circle fill="#747474" cx="60.1" cy="43.2" r="4.1"/>
<path fill="#FFFFFF" d="M98.8,67.7h-69c-2,0-3.6-1.6-3.6-3.6v0c0-2,1.6-3.6,3.6-3.6h69c2,0,3.6,1.6,3.6,3.6v0
	C102.3,66.1,100.7,67.7,98.8,67.7z"/>
<path fill="#FFFFFF" d="M98.8,88.8h-69c-2,0-3.6-1.6-3.6-3.6v0c0-2,1.6-3.6,3.6-3.6h69c2,0,3.6,1.6,3.6,3.6v0
	C102.3,87.2,100.7,88.8,98.8,88.8z"/>
<circle fill="#FFFFFF" cx="78.2" cy="64.2" r="9.2"/>
<circle fill="#747474" cx="78.2" cy="64.2" r="4.1"/>
<circle fill="#FFFFFF" cx="46" cy="85.2" r="9.2"/>
<circle fill="#747474" cx="46" cy="85.2" r="4.1"/>
<g>
</g>
<g>
</g>
<g>
</g>
<g>
</g>
<g>
</g>
<g>
</g>
</svg>
