<?xml version="1.0" encoding="utf-8"?>
<!-- Generator: Adobe Illustrator 18.1.1, SVG Export Plug-In . SVG Version: 6.00 Build 0)  -->
<svg version="1.1" id="Vrstva_1" xmlns="http://www.w3.org/2000/svg" xmlns:xlink="http://www.w3.org/1999/xlink" x="0px" y="0px"
	 viewBox="0 0 128 128" enable-background="new 0 0 128 128" xml:space="preserve">
<circle fill="#E84538" cx="64" cy="64" r="64"/>
<g>
	<path fill="#FFFFFF" d="M65.1,57.6h-40v4.3h3.4v38.9h28.3V61.9h8.3V57.6z M65.1,57.6"/>
	<path fill="#FFFFFF" d="M85.8,77C85.8,77,85.8,77,85.8,77c5.2,0.2,8.2-1.4,8.7-5.5l2.1-19c0.4-3.5-2.4-6.3-5.3-7.3l0,0
		c0,0-1-0.3-1.9-0.5c-1-0.1-1.9,0-1.9,0c-2.2,0.3-4.4,1.8-4.4,1.8c-4.1,2.9-10.4,3.5-18.7,1.9c-2.1-0.4-4.2,1-4.6,3.1
		c-0.4,2.1,0.9,4.1,3.1,4.6c3.5,0.7,6.8,1,9.8,1c2.7,0,5.2-0.3,7.5-0.9l0,0.3l-1.3,12.1c-7.1,0.3-11.5,1.7-13.3,4.4
		c-2.4,3.6-6.2,18.1-7.3,22.5c-0.6,2.3,0.8,4.6,3.1,5.2c0.3,0.1,0.7,0.1,1,0.1c1.9,0,3.7-1.3,4.2-3.2c2-7.8,4.7-15.9,5.9-18.5
		C73.5,76.8,80.3,76.7,85.8,77L85.8,77z M85.8,77"/>
	<path fill="#FFFFFF" d="M97.1,35.5c0,4.8-3.9,8.7-8.7,8.7s-8.7-3.9-8.7-8.7c0-4.8,3.9-8.7,8.7-8.7S97.1,30.7,97.1,35.5L97.1,35.5z
		 M97.1,35.5"/>
	<path fill="#FFFFFF" d="M102.6,68.6l1.2-14.9c0-0.1,0-0.2-0.1-0.2c-0.1-0.1-0.1-0.1-0.2-0.1h-4.7c-0.2,0-0.3,0.1-0.3,0.3l-1.1,15
		c-0.1,4.6-1.5,10.3-9.2,10.3c-0.1,0-8.6,0-8.6,0c-0.1,0-0.2,0-0.2,0.1c-0.1,0.1-0.1,0.1-0.1,0.2v4.6c0,0.2,0.1,0.3,0.3,0.3l7.8,0
		v10.6h-2.4c-3.2,0-5.9,2.8-5.9,6.1c0,0.2,0.1,0.3,0.3,0.3h3.1c0.2,0,0.3-0.1,0.3-0.3c0-1.2,1-2.3,2.2-2.3h10.1c1.2,0,2.2,1,2.2,2.3
		c0,0.2,0.1,0.3,0.3,0.3h3.1c0.2,0,0.3-0.1,0.3-0.3c0-3.3-2.7-6.1-5.9-6.1h-2.4V83.5C100.1,83.3,101.9,75.8,102.6,68.6L102.6,68.6z
		 M102.6,68.6"/>
	<path fill="#FFFFFF" d="M57.6,53H43l-5-18.2c0-0.1-0.2-0.2-0.3-0.2l-2.6,0.7c-0.1,0-0.1,0.1-0.1,0.1c0,0.1,0,0.1,0,0.2l5.6,20.4
		c0,0.1,0.1,0.2,0.2,0.2h16.9c0.1,0,0.2-0.1,0.2-0.2v-2.7C57.9,53.1,57.8,53,57.6,53L57.6,53z M57.6,53"/>
</g>
<g>
</g>
<g>
</g>
<g>
</g>
<g>
</g>
<g>
</g>
<g>
</g>
</svg>
