<?xml version="1.0" encoding="utf-8"?>
<!-- Generator: Adobe Illustrator 18.1.1, SVG Export Plug-In . SVG Version: 6.00 Build 0)  -->
<svg version="1.1" id="Vrstva_1" xmlns="http://www.w3.org/2000/svg" xmlns:xlink="http://www.w3.org/1999/xlink" x="0px" y="0px"
	 viewBox="0 0 128 128" enable-background="new 0 0 128 128" xml:space="preserve">
<circle fill="#253863" cx="64" cy="64" r="64"/>
<g>
	<path fill="#FFFFFF" d="M105.4,39v-5.7l-0.8-0.3c-0.3-0.1-6.9-2.7-15.8-2.7c-9.5,0-17.7,2.9-24.3,8.6c-6.7-5.7-14.8-8.6-24.3-8.6
		c-8.9,0-15.5,2.6-15.8,2.7l-0.8,0.3v5.2c-2.7,0.5-4.4,1.4-4.4,2.9v53.9h39.7c1.4,1.2,3.4,2,5.6,2c2.2,0,4.3-0.8,5.6-2h38.7V41.4
		C108.9,40.2,107.6,39.4,105.4,39L105.4,39z M64,91.1c-3.3-1.4-14.7-5.7-26-5.7c-4.5,0-8.5,0.7-11.9,2V35.1c2-0.7,7.4-2.2,14-2.2
		c8.7,0,16.3,2.6,22.4,7.8v31.3l1.5-1.7V91.1z M102.8,87.5c-3.6-1.5-7.8-2.2-12.5-2.2c-11.4,0-22.2,4.4-25.5,5.8V70.3l1.5,1.7V40.7
		c6.1-5.2,13.6-7.8,22.4-7.8c6.6,0,12,1.6,14,2.2V87.5z M102.8,87.5"/>
	<path fill="#FFFFFF" d="M47,43.6c6.1,1.2,10.2,3.4,10.3,3.5l1-1.8c-0.3-0.2-4.8-2.6-11.3-3.8L47,43.6L47,43.6z M47,43.6"/>
	<path fill="#FFFFFF" d="M47,49.6c6.1,1.2,10.2,3.4,10.3,3.5l1-1.8c-0.3-0.2-4.8-2.6-11.3-3.8L47,49.6L47,49.6z M47,49.6"/>
	<path fill="#FFFFFF" d="M47,55.1c6.1,1.2,10.2,3.4,10.3,3.5l1-1.8c-0.3-0.2-4.8-2.6-11.3-3.8L47,55.1L47,55.1z M47,55.1"/>
	<path fill="#FFFFFF" d="M47,61.2c6.1,1.2,10.2,3.4,10.3,3.5l1-1.8c-0.3-0.2-4.8-2.6-11.3-3.8L47,61.2L47,61.2z M47,61.2"/>
	<path fill="#FFFFFF" d="M31.2,65.1l0.5,2c13.4-3.6,25.5,3,25.6,3.1l1-1.8C57.8,68.2,45.4,61.4,31.2,65.1L31.2,65.1z M31.2,65.1"/>
	<path fill="#FFFFFF" d="M31.2,70.9l0.5,2c13.4-3.6,25.5,3,25.6,3.1l1-1.8C57.8,73.9,45.4,67.2,31.2,70.9L31.2,70.9z M31.2,70.9"/>
	<path fill="#FFFFFF" d="M31.2,76.7l0.5,2c13.4-3.6,25.5,3,25.6,3.1l1-1.8C57.8,79.7,45.4,73,31.2,76.7L31.2,76.7z M31.2,76.7"/>
	<path fill="#FFFFFF" d="M72.2,47.3c0.1-0.1,12.2-6.6,25.6-3.1l0.5-2c-14.2-3.8-26.6,3-27.2,3.3L72.2,47.3z M72.2,47.3"/>
	<path fill="#FFFFFF" d="M71.1,51.3l1,1.8c0.1-0.1,12.2-6.7,25.6-3.1l0.5-2C84,44.3,71.7,51.1,71.1,51.3L71.1,51.3z M71.1,51.3"/>
	<path fill="#FFFFFF" d="M71.1,56.9l1,1.8c0.1-0.1,12.2-6.6,25.6-3.1l0.5-2C84,49.8,71.7,56.6,71.1,56.9L71.1,56.9z M71.1,56.9"/>
	<path fill="#FFFFFF" d="M71.1,63l1,1.8c0.1-0.1,12.2-6.7,25.6-3.1l0.5-2C84,55.9,71.7,62.7,71.1,63L71.1,63z M71.1,63"/>
	<path fill="#FFFFFF" d="M71.1,68.6l1,1.8c0.1-0.1,12.2-6.7,25.6-3.1l0.5-2C84,61.5,71.7,68.3,71.1,68.6L71.1,68.6z M71.1,68.6"/>
	<path fill="#FFFFFF" d="M71.1,74.4l1,1.8c0.1-0.1,12.2-6.7,25.6-3.1l0.5-2C84,67.3,71.7,74.1,71.1,74.4L71.1,74.4z M71.1,74.4"/>
	<path fill="#FFFFFF" d="M71.1,80.2l1,1.8c0.1-0.1,12.2-6.6,25.6-3.1l0.5-2C84,73.1,71.7,79.9,71.1,80.2L71.1,80.2z M71.1,80.2"/>
	<path fill="#FFFFFF" d="M44.8,60.8V41.1c0,0-3.4-0.4-6.8-0.3c-3.4,0.1-6.8,1.1-6.8,1.1v19.7c0,0,2.8-0.8,6.4-1.1
		C41.2,60.3,44.8,60.8,44.8,60.8L44.8,60.8z M44.8,60.8"/>
</g>
<g>
</g>
<g>
</g>
<g>
</g>
<g>
</g>
<g>
</g>
<g>
</g>
</svg>
