<?xml version="1.0" encoding="utf-8"?>
<!-- Generator: Adobe Illustrator 18.1.1, SVG Export Plug-In . SVG Version: 6.00 Build 0)  -->
<svg version="1.1" id="Vrstva_1" xmlns="http://www.w3.org/2000/svg" xmlns:xlink="http://www.w3.org/1999/xlink" x="0px" y="0px"
	 viewBox="0 0 128 128" enable-background="new 0 0 128 128" xml:space="preserve">
<circle fill="#4464A8" cx="64" cy="64" r="64"/>
<path fill="#FFFFFF" d="M72.3,42.3C76,44.6,78.5,48.5,79,53c1.5,0.7,3.2,1.1,4.9,1.1c6.4,0,11.7-5.2,11.7-11.7
	c0-6.4-5.2-11.7-11.7-11.7C77.6,30.8,72.4,35.9,72.3,42.3L72.3,42.3z M64.6,66.6c6.2,0,11.1-5,11.1-11.1c0-6.2-5-11.1-11.1-11.1
	c-6.2,0-11.1,5-11.1,11.1C53.5,61.6,58.5,66.6,64.6,66.6L64.6,66.6z M69.4,67.4h-9.5c-7.9,0-14.3,6.4-14.3,14.3v11.6l0,0.2l0.8,0.3
	c7.5,2.3,14,3.1,19.4,3.1c10.5,0,16.6-3,16.9-3.2l0.7-0.4h0.1V81.6C83.6,73.8,77.2,67.4,69.4,67.4L69.4,67.4z M88.9,54.9h-9.8
	c-0.1,3.9-1.8,7.5-4.4,10c7.3,2.2,12.7,9,12.7,17v3.7c9.7-0.4,15.3-3.1,15.7-3.3l0.8-0.4h0.1V69.9C103.8,61.6,97.1,54.9,88.9,54.9
	L88.9,54.9z M44.2,54.1c2.3,0,4.4-0.7,6.2-1.8c0.6-3.7,2.6-7,5.4-9.2c0-0.2,0-0.4,0-0.7c0-6.4-5.2-11.7-11.7-11.7
	c-6.4,0-11.7,5.2-11.7,11.7C32.5,48.9,37.7,54.1,44.2,54.1L44.2,54.1z M54.6,65c-2.6-2.5-4.3-6.1-4.4-10c-0.4,0-0.7-0.1-1.1-0.1
	h-9.9c-8.2,0-14.9,6.7-14.9,14.9V82l0,0.2l0.8,0.3c6.3,2,11.9,2.9,16.8,3.2v-3.7C42,73.9,47.3,67.1,54.6,65L54.6,65z M54.6,65"/>
<g>
</g>
<g>
</g>
<g>
</g>
<g>
</g>
<g>
</g>
<g>
</g>
</svg>
