<?xml version="1.0" encoding="utf-8"?>
<!-- Generator: Adobe Illustrator 18.1.1, SVG Export Plug-In . SVG Version: 6.00 Build 0)  -->
<svg version="1.1" id="Vrstva_1" xmlns="http://www.w3.org/2000/svg" xmlns:xlink="http://www.w3.org/1999/xlink" x="0px" y="0px"
	 viewBox="0 0 128 128" enable-background="new 0 0 128 128" xml:space="preserve">
<circle fill="#595959" cx="64" cy="64" r="64"/>
<g>
	<path fill="#FFFFFF" d="M83.2,53.1c-1.5,5.1-5.2,9.8-10.5,13.3l-1,7.6c-0.3,2.4-1.9,4.3-4.2,5.2c-0.7,0.2-1.4,0.3-2.1,0.3
		c-1.7,0-3.2-0.6-4.4-1.8l-5.1-5c-2.5,0.4-5.1,0.6-7.7,0.6c-0.1,0-0.2,0-0.3,0c0,0.3-0.1,0.6-0.1,0.8c0,6.5,4.3,12.3,11,16.2
		l1.2,9.8c0.1,0.6,0.5,1.2,1.1,1.4c0.6,0.2,1.3,0.1,1.7-0.4l6.8-6.6c2.9,0.6,6,1,9.3,1c17.2,0,31.2-9.5,31.2-21.3
		C110.3,63.4,98.5,54.5,83.2,53.1L83.2,53.1z M79.1,78.3c-2.3,0-4.1-1.8-4.1-4.1c0-2.3,1.8-4.1,4.1-4.1c2.3,0,4.1,1.8,4.1,4.1
		C83.2,76.5,81.4,78.3,79.1,78.3L79.1,78.3z M91,78.3c-2.3,0-4.1-1.8-4.1-4.1c0-2.3,1.8-4.1,4.1-4.1c2.3,0,4.1,1.8,4.1,4.1
		C95.1,76.5,93.3,78.3,91,78.3L91,78.3z M91,78.3"/>
	<path fill="#FFFFFF" d="M57.5,67.8l6.8,6.6c0.3,0.3,0.7,0.5,1.2,0.5c0.2,0,0.4,0,0.5-0.1c0.6-0.2,1-0.7,1.1-1.4l1.2-9.8
		c6.8-3.9,11-9.7,11-16.2c0-11.8-14-21.3-31.2-21.3c-17.2,0-31.2,9.5-31.2,21.3c0,11.8,14,21.3,31.2,21.3
		C51.5,68.8,54.6,68.4,57.5,67.8L57.5,67.8z M60.1,43.4c2.3,0,4.1,1.8,4.1,4.1c0,2.3-1.8,4.1-4.1,4.1c-2.3,0-4.1-1.8-4.1-4.1
		C56,45.2,57.8,43.4,60.1,43.4L60.1,43.4z M36.4,51.6c-2.3,0-4.1-1.8-4.1-4.1c0-2.3,1.8-4.1,4.1-4.1c2.3,0,4.1,1.8,4.1,4.1
		C40.5,49.7,38.7,51.6,36.4,51.6L36.4,51.6z M44.2,47.5c0-2.3,1.8-4.1,4.1-4.1c2.3,0,4.1,1.8,4.1,4.1c0,2.3-1.8,4.1-4.1,4.1
		C46,51.6,44.2,49.7,44.2,47.5L44.2,47.5z M44.2,47.5"/>
</g>
<g>
</g>
<g>
</g>
<g>
</g>
<g>
</g>
<g>
</g>
<g>
</g>
</svg>
