<?xml version="1.0" encoding="utf-8"?>
<!-- Generator: Adobe Illustrator 18.1.1, SVG Export Plug-In . SVG Version: 6.00 Build 0)  -->
<svg version="1.1" id="Vrstva_1" xmlns="http://www.w3.org/2000/svg" xmlns:xlink="http://www.w3.org/1999/xlink" x="0px" y="0px"
	 viewBox="0 0 128 128" preserveAspectRatio="xMinYMid" xml:space="preserve">
<path fill="#295794" d="M74.9,66.9c-1.5-0.1-2.8,1-2.9,2.5l-1.6,25.2c-0.1,1.5,1,2.8,2.5,2.9c0.1,0,0.1,0,0.2,0
	c1.4,0,2.6-1.1,2.7-2.5l1.6-25.2C77.5,68.3,76.4,67,74.9,66.9z"/>
<path fill="#295794" d="M60.5,66.9c-2.3,0-2.7,1.7-2.7,2.7v25.2c0,1.5,1.2,2.7,2.7,2.7c1.5,0,2.7-1.2,2.7-2.7V69.6
	C63.2,68.1,62,66.9,60.5,66.9z"/>
<path fill="#295794" d="M76.6,35.3c-0.1-3.9-3.2-7-7.2-7c-1.6,0-3.1,0.6-4.3,1.5c-1.9-1.2-4.2-1.9-6.7-1.9c-5.7,0-10.5,3.7-12.1,8.8
	c-0.7-0.1-1.4-0.2-2.2-0.2c-5.8,0-10.4,4.7-10.4,10.4c0,5.8,4.7,10.4,10.4,10.4c0,0,0.1,0,0.1,0c0.6,3.8,3.9,6.6,7.8,6.6
	c2.7,0,5.1-1.4,6.6-3.5c1.1,0.6,2.4,1,3.8,1c3,0,5.6-1.7,7-4.3c1.8,1.1,3.9,1.7,6.2,1.7c6.6,0,11.9-5.3,11.9-11.9
	C87.3,41,82.6,35.9,76.6,35.3z"/>
<path fill="#295794" d="M64,0C28.7,0,0,28.7,0,64c0,35.3,28.7,64,64,64s64-28.7,64-64C128,28.7,99.3,0,64,0z M100,83.3
	c0,6-4.9,10.8-10.9,10.8h-4.5l-0.2,4c-0.2,3.8-3.4,6.9-7.3,6.9H43.7c-3.8,0-7-3-7.2-6.9l-2.2-38.7c-3.7-2.9-6.1-7.4-6.1-12.4
	c0-8.3,6.5-15.2,14.7-15.8c3.2-5.3,9-8.6,15.5-8.6c2.2,0,4.5,0.4,6.5,1.2c1.4-0.6,2.9-0.8,4.5-0.8c5.3,0,9.8,3.2,11.7,7.9
	c6.9,2.3,11.6,8.8,11.6,16.3c0,5.1-2.2,9.7-5.7,12.8h2.2c6,0,10.9,4.9,10.9,10.9V83.3z"/>
<path fill="#295794" d="M89.2,67.2h-3l-1.1,19.8h4.1c2,0,3.7-1.6,3.7-3.6V70.9C92.9,68.8,91.2,67.2,89.2,67.2z"/>
<path fill="#295794" d="M46.1,66.9c-1.2,0-2.7,0.9-2.6,2.9L45.1,95c0.1,1.4,1.3,2.5,2.7,2.5c0.1,0,0.1,0,0.2,0
	c1.5-0.1,2.6-1.4,2.5-2.9c0,0-1.2-18.8-1.6-25.5C48.8,67.9,47.5,66.8,46.1,66.9z"/>
<path fill="#FFFFFF" d="M89.2,60H87c3.5-3.2,5.7-7.8,5.7-12.8c0-7.6-4.8-14-11.6-16.3c-1.8-4.6-6.3-7.9-11.7-7.9
	c-1.5,0-3.1,0.3-4.5,0.8c-2.1-0.8-4.3-1.2-6.5-1.2c-6.4,0-12.2,3.3-15.5,8.6c-8.2,0.6-14.7,7.4-14.7,15.8c0,5,2.4,9.5,6.1,12.4
	l2.2,38.7c0.2,3.8,3.4,6.9,7.2,6.9h33.5c3.8,0,7-3,7.3-6.9l0.2-4h4.5c6,0,10.9-4.8,10.9-10.8V70.9C100,64.9,95.2,60,89.2,60z
	 M48,97.5c-0.1,0-0.1,0-0.2,0c-1.4,0-2.6-1.1-2.7-2.5l-1.6-25.2c-0.1-2,1.4-2.8,2.6-2.9c1.3-0.1,2.6,1,2.7,2.3
	c0.4,6.7,1.6,25.5,1.6,25.5C50.6,96.1,49.5,97.4,48,97.5z M63.2,94.8c0,1.5-1.2,2.7-2.7,2.7c-1.5,0-2.7-1.2-2.7-2.7V69.6
	c0-1,0.4-2.7,2.7-2.7c1.5,0,2.7,1.2,2.7,2.7V94.8z M75.8,95c-0.1,1.4-1.3,2.5-2.7,2.5c-0.1,0-0.1,0-0.2,0c-1.5-0.1-2.6-1.4-2.5-2.9
	L72,69.4c0.1-1.5,1.3-2.6,2.9-2.5c1.5,0.1,2.6,1.4,2.5,2.9L75.8,95z M75.5,59c-2.3,0-4.4-0.6-6.2-1.7c-1.3,2.5-3.9,4.3-7,4.3
	c-1.4,0-2.6-0.4-3.8-1C57.1,62.6,54.7,64,52,64c-3.9,0-7.2-2.9-7.8-6.6c0,0-0.1,0-0.1,0c-5.8,0-10.4-4.7-10.4-10.4
	c0-5.7,4.7-10.4,10.4-10.4c0.8,0,1.5,0.1,2.2,0.2c1.7-5.1,6.5-8.8,12.1-8.8c2.5,0,4.7,0.7,6.7,1.9c1.2-0.9,2.7-1.5,4.3-1.5
	c3.9,0,7.1,3.1,7.2,7c6,0.6,10.8,5.6,10.8,11.8C87.3,53.7,82,59,75.5,59z M92.9,83.3c0,2-1.6,3.6-3.7,3.6h-4.1l1.1-19.8h3
	c2,0,3.7,1.7,3.7,3.7V83.3z"/>
<g>
</g>
<g>
</g>
<g>
</g>
<g>
</g>
<g>
</g>
<g>
</g>
</svg>
