<?xml version="1.0" encoding="utf-8"?>
<!-- Generator: Adobe Illustrator 18.1.1, SVG Export Plug-In . SVG Version: 6.00 Build 0)  -->
<svg version="1.1" id="Vrstva_1" xmlns="http://www.w3.org/2000/svg" xmlns:xlink="http://www.w3.org/1999/xlink" x="0px" y="0px"
	 viewBox="0 0 49.3 49.3" enable-background="new 0 0 49.3 49.3" xml:space="preserve">
<g>
	<circle fill="#C7C7C7" cx="24.7" cy="24.7" r="24.7"/>
	<g>
		<path fill="#707070" d="M9.4,15.4c-0.6-0.4-1.4-0.4-2,0c-0.6,0.4-0.6,1.1,0,1.6l16.1,12.7c0.6,0.4,1.4,0.4,2,0L41.6,17
			c0.6-0.4,0.6-1.1,0-1.6c-0.6-0.4-1.4-0.4-2,0L24.5,27L9.4,15.4z M9.4,15.4"/>
		<path fill="#707070" d="M9.8,23.6c-0.6-0.4-1.4-0.4-2,0c-0.6,0.4-0.6,1.1,0,1.6l16.1,12.7c0.6,0.4,1.4,0.4,2,0l16.1-12.7
			c0.6-0.4,0.6-1.1,0-1.6c-0.6-0.4-1.4-0.4-2,0L24.8,35.2L9.8,23.6z M9.8,23.6"/>
	</g>
</g>
<g>
</g>
<g>
</g>
<g>
</g>
<g>
</g>
<g>
</g>
<g>
</g>
</svg>
