<?xml version="1.0" encoding="UTF-8" standalone="no"?>
<svg
   xmlns:dc="http://purl.org/dc/elements/1.1/"
   xmlns:cc="http://creativecommons.org/ns#"
   xmlns:rdf="http://www.w3.org/1999/02/22-rdf-syntax-ns#"
   xmlns:svg="http://www.w3.org/2000/svg"
   xmlns="http://www.w3.org/2000/svg"
   height="73.099998"
   width="1053.5"
   xml:space="preserve"
   enable-background="new 0 0 1100 200"
   viewBox="0 0 1053.5 73.099998"
   y="0px"
   x="0px"
   id="Vrstva_1"
   version="1.1"><metadata
     id="metadata71"><rdf:RDF><cc:Work
         rdf:about=""><dc:format>image/svg+xml</dc:format><dc:type
           rdf:resource="http://purl.org/dc/dcmitype/StillImage" /><dc:title></dc:title></cc:Work></rdf:RDF></metadata><defs
     id="defs69" /><g
     transform="translate(-23.799999,-63.299999)"
     id="g3"><rect
       style="fill:#454545"
       id="rect5"
       height="73.099998"
       width="1053.5"
       y="63.299999"
       x="23.799999" /><g
       id="g7"><g
         id="g9"><g
           id="g11"><polygon
             style="fill:#212121"
             id="polygon13"
             points="794.1,63.3 726.8,130.6 715.7,119.6 772.1,63.3 769.3,63.3 726.8,105.8 715.7,94.8 747.3,63.3 744.5,63.3 726.8,81 715.7,70 722.4,63.3 719.7,63.3 714.2,68.7 708.8,63.3 706,63.3 725.2,82.5 714.2,93.5 684,63.3 681.2,63.3 725.2,107.3 714.2,118.3 659.2,63.3 656.4,63.3 725.2,132.1 721,136.3 723.8,136.3 796.9,63.3 " /></g><g
           id="g15"><polygon
             style="fill:#212121"
             id="polygon17"
             points="23.8,93.1 63.3,132.6 59.6,136.3 62.4,136.3 135.1,63.6 146.1,74.6 84.4,136.3 87.2,136.3 135.1,88.4 146.1,99.5 109.2,136.3 112,136.3 135.1,113.3 146.1,124.3 134,136.3 136.9,136.3 147.6,125.6 158.4,136.3 161.2,136.3 136.6,111.8 147.6,100.8 183.2,136.3 186,136.3 136.6,87 147.6,76 208,136.3 210.8,136.3 137.7,63.3 132.7,63.3 64.8,131.1 53.8,120.1 110.6,63.3 108.3,63.3 64.8,106.7 53.8,95.7 86.3,63.3 83.5,63.3 64.8,81.9 53.8,70.9 61.5,63.3 58.7,63.3 52.3,69.6 45.9,63.3 43.1,63.3 63.3,83.4 52.3,94.5 23.8,65.9 23.8,68.2 63.3,107.8 52.3,118.8 23.8,90.3 " /></g><g
           id="g19"><polygon
             style="fill:#212121"
             id="polygon21"
             points="808,99 770.7,136.3 773,136.3 797,112.3 808,123.3 795,136.3 799.2,136.3 798.5,135.7 809.6,124.6 821.2,136.3 823.6,136.3 798.5,111.3 809.6,100.3 845.6,136.3 848.4,136.3 798.5,86.5 809.6,75.5 870.4,136.3 873.2,136.3 800.1,63.3 797.1,63.3 808,74.2 745.9,136.3 748.6,136.3 797,88 " /></g><g
           id="g23"><polygon
             style="fill:#212121"
             id="polygon25"
             points="1077.2,110.8 1057.9,130.1 1046.8,119.1 1077.2,88.7 1077.2,85.9 1057.9,105.3 1046.8,94.3 1077.2,63.9 1077.2,63.3 1075.1,63.3 1057.9,80.5 1046.8,69.5 1053.1,63.3 1050.3,63.3 1045.3,68.2 1040.4,63.3 1037.6,63.3 1056.3,82 1045.3,93 1015.6,63.3 1012.8,63.3 1056.3,106.8 1045.3,117.8 990.8,63.3 988,63.3 1056.3,131.6 1051.7,136.3 1054.4,136.3 1077.2,113.5 " /></g><g
           id="g27"><polygon
             style="fill:#212121"
             id="polygon29"
             points="311.7,74.4 249.8,136.3 252.6,136.3 300.6,88.2 311.7,99.2 274.6,136.3 277.4,136.3 300.6,113 311.7,124.1 299.4,136.3 302.2,136.3 302.2,136.3 313.2,125.3 324.2,136.3 327,136.3 302.2,111.5 313.2,100.5 349,136.3 351.8,136.3 302.2,86.7 313.2,75.7 373.8,136.3 376.6,136.3 303.6,63.3 298.5,63.3 230.4,131.3 219.4,120.3 276.4,63.3 273.7,63.3 230.4,106.5 219.4,95.5 251.6,63.3 248.8,63.3 230.4,81.7 219.4,70.7 226.8,63.3 224,63.3 217.9,69.4 211.7,63.3 208.9,63.3 228.9,83.2 217.9,94.2 186.9,63.3 184.1,63.3 228.9,108.1 217.9,119.1 162.1,63.3 159.8,63.3 228.9,132.4 225,136.3 227.7,136.3 300.6,63.4 " /></g><g
           id="g31"><polygon
             style="fill:#212121"
             id="polygon33"
             points="477.2,99 439.8,136.3 442.6,136.3 466.2,112.8 477.2,123.8 464.6,136.3 467.9,136.3 467.7,136.1 478.7,125.1 490,136.3 492.8,136.3 467.7,111.3 478.7,100.3 514.8,136.3 517.6,136.3 467.7,86.5 478.7,75.5 539.6,136.3 541.9,136.3 468.9,63.3 466.3,63.3 477.2,74.2 415,136.3 417.8,136.3 466.2,88 " /></g><g
           id="g35"><polygon
             style="fill:#212121"
             id="polygon37"
             points="463.7,63.3 395.9,131.1 384.9,120 441.7,63.3 438.9,63.3 395.9,106.2 384.9,95.2 416.9,63.3 414.1,63.3 395.9,81.4 384.9,70.4 392.1,63.3 389.3,63.3 383.4,69.2 377.5,63.3 374.7,63.3 394.4,83 383.4,94 352.7,63.3 349.9,63.3 394.4,107.8 383.4,118.8 327.9,63.3 325.6,63.3 394.4,132.1 390.2,136.3 393,136.3 466,63.3 " /></g><g
           id="g39"><polygon
             style="fill:#212121"
             id="polygon41"
             points="23.8,115.1 23.8,117.9 42.2,136.3 45,136.3 " /></g><g
           id="g43"><polygon
             style="fill:#212121"
             id="polygon45"
             points="973.6,98.8 936,136.3 938.8,136.3 962.6,112.6 973.6,123.6 960.8,136.3 965,136.3 964.1,135.4 975.1,124.4 987.1,136.3 989.4,136.3 964.1,111 975.1,100 1011.4,136.3 1014.2,136.3 964.1,86.2 975.1,75.2 1036.2,136.3 1039,136.3 965.9,63.3 962.9,63.3 973.6,74 911.2,136.3 914,136.3 962.6,87.8 " /></g><g
           id="g47"><polygon
             style="fill:#212121"
             id="polygon49"
             points="642.8,74.4 580.8,136.3 583.2,136.3 631.7,87.7 642.8,98.8 605.2,136.3 608,136.3 631.7,112.6 642.8,123.6 630,136.3 633.4,136.3 633,135.9 644,124.9 655.5,136.3 658.3,136.3 633,111.1 644,100 680.3,136.3 682.6,136.3 633,86.7 644,75.7 704.6,136.3 707.4,136.3 634.4,63.3 629.1,63.3 561.5,130.8 550.5,119.8 607.1,63.3 604.3,63.3 561.5,106 550.5,95 582.2,63.3 579.5,63.3 561.5,81.2 550.5,70.2 557.4,63.3 554.6,63.3 549,68.9 543.3,63.3 540.5,63.3 560,82.7 549,93.8 518.5,63.3 515.7,63.3 560,107.6 549,118.6 493.7,63.3 490.9,63.3 560,132.4 556,136.3 558.8,136.3 631.7,63.4 " /></g><g
           id="g51"><polygon
             style="fill:#212121"
             id="polygon53"
             points="959.5,63.3 892.3,130.4 881.3,119.4 937.4,63.3 934.6,63.3 892.3,105.6 881.3,94.6 912.6,63.3 909.8,63.3 892.3,80.8 881.3,69.8 887.8,63.3 885,63.3 879.8,68.5 874.6,63.3 871.8,63.3 890.8,82.3 879.8,93.3 849.8,63.3 847,63.3 890.8,107.1 879.8,118.1 824.9,63.3 822.2,63.3 890.8,131.9 886.4,136.3 889.2,136.3 962.2,63.3 " /></g></g></g></g><g
     transform="translate(-23.799999,-63.299999)"
     id="g55" /><g
     transform="translate(-23.799999,-63.299999)"
     id="g57" /><g
     transform="translate(-23.799999,-63.299999)"
     id="g59" /><g
     transform="translate(-23.799999,-63.299999)"
     id="g61" /><g
     transform="translate(-23.799999,-63.299999)"
     id="g63" /><g
     transform="translate(-23.799999,-63.299999)"
     id="g65" /></svg>