<?xml version="1.0" encoding="UTF-8" standalone="no"?>
<svg
   xmlns:dc="http://purl.org/dc/elements/1.1/"
   xmlns:cc="http://creativecommons.org/ns#"
   xmlns:rdf="http://www.w3.org/1999/02/22-rdf-syntax-ns#"
   xmlns:svg="http://www.w3.org/2000/svg"
   xmlns="http://www.w3.org/2000/svg"
   xml:space="preserve"
   viewBox="0 0 1053.5 519.6"
   y="0px"
   x="0px"
   id="Vrstva_1"
   version="1.1"><metadata
     id="metadata169"><rdf:RDF><cc:Work
         rdf:about=""><dc:format>image/svg+xml</dc:format><dc:type
           rdf:resource="http://purl.org/dc/dcmitype/StillImage" /><dc:title></dc:title></cc:Work></rdf:RDF></metadata><defs
     id="defs167" /><rect
     id="rect3"
     height="519.6"
     width="1053.5"
     fill="#B2E0F8"
     y="0"
     x="0" /><g
     id="g5"><g
       id="g7"><path
         fill="#E4C8A8"
         id="path9"
         d="M611,101.1c0,0,3.5,11.3,6.4,14.2c0,0-2.3,7.5,0,9.9c0,0-4.1,1.5-5.5,5.5c0,0-5.8-9.7-9.7-9.7    c0,0-18.4-0.2-6.8,11.4c11.6,11.6,25.5,7.5,25.5,7.5l23.8-11l-16.2-27.8H611z" /><path
         fill="#2EA4DD"
         id="path11"
         d="M593.1,219.3H460.9c-5.5,0-10-4.5-10-10v-31.2c0-5.5,4.5-10,10-10h132.2c5.5,0,10,4.5,10,10v31.2    C603.1,214.8,598.6,219.3,593.1,219.3z" /><g
         id="g13" /><polygon
         fill="#FDDDB8"
         id="polygon15"
         points="433.7,164.5 408,148.1 441.8,145.1 449.9,149.2   " /><path
         fill="#E4C8A8"
         id="path17"
         d="M443,101.1c0,0-3.5,11.3-6.4,14.2c0,0,2.3,7.5,0,9.9c0,0,4.1,1.5,5.5,5.5c0,0,5.8-9.7,9.7-9.7    c0,0,18.4-0.2,6.8,11.4c-11.6,11.6-25.5,7.5-25.5,7.5l-23.8-11l16.2-27.8H443z" /><path
         fill="#FFFFFF"
         id="path19"
         d="M454.4,116.9c1.9,2.2,4.6,3.5,7.5,3.5h130.3c2.9,0,5.5-1.3,7.5-3.5L527,43L454.4,116.9z M454.4,116.9" /><rect
         fill="#2EA4DD"
         id="rect21"
         height="145.4"
         width="152.2"
         y="62.8"
         x="450.9" /><path
         fill="#FFFFFF"
         id="path23"
         d="M527,186.7l-18.8-16.5l-55.5,46.7c2,1.9,3.1,2.6,9.1,2.4h130.3c4,0.4,6.7-0.1,8.7-2l-55-47.1L527,186.7z     M527,186.7" /><path
         fill="#FFFFFF"
         id="path25"
         d="M450.9,120.1v90.3l52.5-44.6L450.9,120.1z M450.9,120.1" /><path
         fill="#FFFFFF"
         id="path27"
         d="M550.5,165.8l52.5,44.6v-90.3L550.5,165.8z M550.5,165.8" /><path
         fill="#FDDDB8"
         id="path39"
         d="M466.8,128.5L436,134c0,0-0.9-4.3-5.5-5.5c0,0-0.4-5.7-3.2-8.4c0,0,6.4-9.9,6.4-11.6l14.5-2.9    c0,0,0.9,1.3,2.5,2.9V81.2c-3.6-7.4-9.4-17.2-15.8-20.5l-13.9-29l-25.5,17.4l9.4,16.1c0,0-7.2,27-7.2,30c0,3,4.2,51.5,4.2,51.5    l7.7,2.3l27.7,8.4l42.7-18.9C479.9,138.6,485.3,125,466.8,128.5z" /><g
         id="g41" /><polygon
         fill="#FDDDB8"
         id="polygon43"
         points="620.2,164.5 646,148.1 612.1,145.1 604,149.2   " /><path
         fill="#FDDDB8"
         id="path45"
         d="M587.2,128.5l30.7,5.5c0,0,0.9-4.3,5.5-5.5c0,0,0.4-5.7,3.2-8.4c0,0-6.4-9.9-6.4-11.6l-14.5-2.9    c0,0-0.9,1.3-2.5,2.9V81.2c3.6-7.4,9.4-17.2,15.8-20.5l13.9-29l25.5,17.4l-9.4,16.1c0,0,7.2,27,7.2,30c0,3-4.2,51.5-4.2,51.5    l-7.7,2.3l-27.7,8.4L574,138.6C574,138.6,568.6,125,587.2,128.5z" /><polygon
         fill="#FFFFFF"
         id="polygon47"
         points="374.7,20.4 390.1,55.2 435.2,40.9 416.7,-2.1 421.7,-21.1 347.5,-21.1   " /><polygon
         fill="#FFFFFF"
         id="polygon49"
         points="632.2,-21.1 637.2,-2.1 618.8,40.9 663.8,55.2 679.2,20.4 706.4,-21.1   " /></g><g
       id="g51" /><g
       id="g53"><g
         id="g55"><g
           id="g57"><path
             fill="none"
             stroke="#FFFFFF"
             stroke-width="3"
             id="path59"
             d="M141.2,297.4c0,0,1-0.1,3-0.3"
             stroke-miterlimit="10" /><path
             fill="none"
             stroke="#FFFFFF"
             stroke-width="3"
             stroke-dasharray="5.9557,5.9557"
             id="path61"
             d="M150.1,296.4      c38.7-4.4,193.5-24.4,260-69.3"
             stroke-miterlimit="10" /><path
             fill="none"
             stroke="#FFFFFF"
             stroke-width="3"
             id="path63"
             d="M412.6,225.5c0.8-0.6,1.6-1.2,2.4-1.8"
             stroke-miterlimit="10" /></g></g><g
         id="g65"><g
           id="g67"><line
             fill="none"
             stroke="#FFFFFF"
             stroke-width="3"
             id="line69"
             y2="226.5"
             x2="393.7"
             y1="227"
             x1="390.8"
             stroke-miterlimit="10" /><line
             fill="none"
             stroke="#FFFFFF"
             stroke-width="3"
             stroke-dasharray="6.7377,6.7377"
             id="line71"
             y2="223.9"
             x2="410.4"
             y1="225.5"
             x1="400.4"
             stroke-miterlimit="10" /><polyline
             fill="none"
             stroke="#FFFFFF"
             stroke-width="3"
             id="polyline73"
             points="413.7,223.4 416.7,222.9 415.1,225.5           "
             stroke-miterlimit="10" /><line
             fill="none"
             stroke="#FFFFFF"
             stroke-width="3"
             stroke-dasharray="4.7568,4.7568"
             id="line75"
             y2="235.6"
             x2="408.9"
             y1="229.5"
             x1="412.6"
             stroke-miterlimit="10" /><line
             fill="none"
             stroke="#FFFFFF"
             stroke-width="3"
             id="line77"
             y2="240.2"
             x2="406.2"
             y1="237.7"
             x1="407.7"
             stroke-miterlimit="10" /></g></g></g><g
       id="g79"><g
         id="g81"><g
           id="g83"><path
             fill="none"
             stroke="#FFFFFF"
             stroke-width="3"
             id="path85"
             d="M908.4,297.4c0,0-1-0.1-3-0.3"
             stroke-miterlimit="10" /><path
             fill="none"
             stroke="#FFFFFF"
             stroke-width="3"
             stroke-dasharray="5.9557,5.9557"
             id="path87"
             d="M899.5,296.4      c-38.7-4.4-193.5-24.4-260-69.3"
             stroke-miterlimit="10" /><path
             fill="none"
             stroke="#FFFFFF"
             stroke-width="3"
             id="path89"
             d="M637,225.5c-0.8-0.6-1.6-1.2-2.4-1.8"
             stroke-miterlimit="10" /></g></g><g
         id="g91"><g
           id="g93"><line
             fill="none"
             stroke="#FFFFFF"
             stroke-width="3"
             id="line95"
             y2="226.5"
             x2="655.8"
             y1="227"
             x1="658.8"
             stroke-miterlimit="10" /><line
             fill="none"
             stroke="#FFFFFF"
             stroke-width="3"
             stroke-dasharray="6.7377,6.7377"
             id="line97"
             y2="223.9"
             x2="639.2"
             y1="225.5"
             x1="649.2"
             stroke-miterlimit="10" /><polyline
             fill="none"
             stroke="#FFFFFF"
             stroke-width="3"
             id="polyline99"
             points="635.9,223.4 632.9,222.9 634.5,225.5           "
             stroke-miterlimit="10" /><line
             fill="none"
             stroke="#FFFFFF"
             stroke-width="3"
             stroke-dasharray="4.7568,4.7568"
             id="line101"
             y2="235.6"
             x2="640.6"
             y1="229.5"
             x1="636.9"
             stroke-miterlimit="10" /><line
             fill="none"
             stroke="#FFFFFF"
             stroke-width="3"
             id="line103"
             y2="240.2"
             x2="643.4"
             y1="237.7"
             x1="641.9"
             stroke-miterlimit="10" /></g></g></g><g
       id="g105"><path
         fill="none"
         stroke="#FFFFFF"
         stroke-width="3"
         stroke-dasharray="6"
         id="path107"
         d="M643.6,177    c0,0,265.3-26.9,333.2-119.2"
         stroke-miterlimit="10" /><g
         id="g109"><g
           id="g111"><line
             fill="none"
             stroke="#FFFFFF"
             stroke-width="3"
             id="line113"
             y2="164.8"
             x2="657.1"
             y1="163.3"
             x1="659.7"
             stroke-miterlimit="10" /><line
             fill="none"
             stroke="#FFFFFF"
             stroke-width="3"
             stroke-dasharray="7.5324,7.5324"
             id="line115"
             y2="174.5"
             x2="641"
             y1="168.7"
             x1="650.7"
             stroke-miterlimit="10" /><polyline
             fill="none"
             stroke="#FFFFFF"
             stroke-width="3"
             id="polyline117"
             points="637.7,176.4 635.1,177.9 637.9,179.1           "
             stroke-miterlimit="10" /><line
             fill="none"
             stroke="#FFFFFF"
             stroke-width="3"
             stroke-dasharray="7.3813,7.3813"
             id="line119"
             y2="186.3"
             x2="654.9"
             y1="182"
             x1="644.7"
             stroke-miterlimit="10" /><line
             fill="none"
             stroke="#FFFFFF"
             stroke-width="3"
             id="line121"
             y2="189"
             x2="661"
             y1="187.8"
             x1="658.3"
             stroke-miterlimit="10" /></g></g></g><g
       id="g123"><path
         fill="none"
         stroke="#FFFFFF"
         stroke-width="3"
         stroke-dasharray="6"
         id="path125"
         d="M409.8,177    c0,0-265.3-26.9-333.2-119.2"
         stroke-miterlimit="10" /><g
         id="g127"><g
           id="g129"><line
             fill="none"
             stroke="#FFFFFF"
             stroke-width="3"
             id="line131"
             y2="164.8"
             x2="396.3"
             y1="163.3"
             x1="393.8"
             stroke-miterlimit="10" /><line
             fill="none"
             stroke="#FFFFFF"
             stroke-width="3"
             stroke-dasharray="7.5324,7.5324"
             id="line133"
             y2="174.5"
             x2="412.5"
             y1="168.7"
             x1="402.8"
             stroke-miterlimit="10" /><polyline
             fill="none"
             stroke="#FFFFFF"
             stroke-width="3"
             id="polyline135"
             points="415.7,176.4 418.3,177.9 415.6,179.1           "
             stroke-miterlimit="10" /><line
             fill="none"
             stroke="#FFFFFF"
             stroke-width="3"
             stroke-dasharray="7.3813,7.3813"
             id="line137"
             y2="186.3"
             x2="398.6"
             y1="182"
             x1="408.8"
             stroke-miterlimit="10" /><line
             fill="none"
             stroke="#FFFFFF"
             stroke-width="3"
             id="line139"
             y2="189"
             x2="392.4"
             y1="187.8"
             x1="395.2"
             stroke-miterlimit="10" /></g></g></g><g
       opacity="0.67"
       id="g141"><path
         fill="#FFFFFF"
         fill-rule="evenodd"
         clip-rule="evenodd"
         id="path143"
         d="M500.8,265c-7.6-30.7,52.5-35.2,49.8-1c0,0-0.1,2.7,1.6,1.5    c14.3-16.6,29.7,0.8,23.1,11.6c10.4,2.7,14.9,8.3,15,13.8H450.5l0,0c-1.3-12,8.9-26.3,30.1-19.9    C476.4,258.7,496.9,254.8,500.8,265c-0.1,0.3-0.2,0.5-0.2,0.8c0,1,0.8,1.7,1.7,1.7" /><path
         fill="#FFFFFF"
         fill-rule="evenodd"
         clip-rule="evenodd"
         id="path145"
         d="M922.1,259.4c-4-16.1,27.6-18.5,26.2-0.5c0,0,0,1.4,0.8,0.8    c7.5-8.7,15.7,0.4,12.1,6.1c5.5,1.4,7.8,4.4,7.9,7.3h-73.6l0,0c-0.7-6.3,4.7-13.8,15.9-10.5C909.3,256.1,920,254,922.1,259.4    c-0.1,0.1-0.1,0.3-0.1,0.4c0,0.5,0.4,0.9,0.9,0.9" /><path
         fill="#FFFFFF"
         fill-rule="evenodd"
         clip-rule="evenodd"
         id="path147"
         d="M810.9,69.6c-7.4-29.7,50.9-34.2,48.3-1c0,0-0.1,2.6,1.6,1.5    c13.8-16.1,28.8,0.8,22.4,11.3c10.1,2.6,14.4,8,14.6,13.4H762.1l0,0c-1.2-11.7,8.6-25.5,29.2-19.2    C787.3,63.6,807.1,59.8,810.9,69.6c-0.1,0.3-0.2,0.5-0.2,0.7c0,0.9,0.8,1.7,1.7,1.7" /><path
         fill="#FFFFFF"
         fill-rule="evenodd"
         clip-rule="evenodd"
         id="path149"
         d="M155.4,225c-8.3-33.3,57-38.2,54.1-1.1c0,0-0.1,3,1.7,1.6    c15.5-18,32.3,0.9,25,12.6c11.3,2.9,16.1,9,16.3,15H100.8l0,0c-1.4-13.1,9.6-28.5,32.7-21.6C128.9,218.2,151.1,213.9,155.4,225    c-0.1,0.3-0.2,0.6-0.2,0.8c0,1,0.8,1.9,1.9,1.9" /><path
         fill="#FFFFFF"
         fill-rule="evenodd"
         clip-rule="evenodd"
         id="path151"
         d="M280.4,101.6c-4-16.1,27.6-18.5,26.2-0.5c0,0,0,1.4,0.8,0.8    c7.5-8.7,15.7,0.4,12.1,6.1c5.5,1.4,7.8,4.4,7.9,7.3H254l0,0c-0.7-6.3,4.7-13.8,15.9-10.5C267.6,98.3,278.4,96.2,280.4,101.6    c-0.1,0.1-0.1,0.3-0.1,0.4c0,0.5,0.4,0.9,0.9,0.9" /></g></g><g
     id="g153" /><g
     id="g155" /><g
     id="g157" /><g
     id="g159" /><g
     id="g161" /><g
     id="g163" /></svg>