<?xml version="1.0" encoding="utf-8"?>
<!-- Generator: Adobe Illustrator 18.1.1, SVG Export Plug-In . SVG Version: 6.00 Build 0)  -->
<svg version="1.1" id="Vrstva_1" xmlns="http://www.w3.org/2000/svg" xmlns:xlink="http://www.w3.org/1999/xlink" x="0px" y="0px"
	 viewBox="0 0 1053.5 519.6" enable-background="new 0 0 1053.5 519.6" xml:space="preserve">
<rect x="0" y="0" fill="#B2E0F8" width="1053.5" height="519.6"/>
<g>
	<g>
		<path fill="#E4C8A8" d="M611,101.1c0,0,3.5,11.3,6.4,14.2c0,0-2.3,7.5,0,9.9c0,0-4.1,1.5-5.5,5.5c0,0-5.8-9.7-9.7-9.7
			c0,0-18.4-0.2-6.8,11.4c11.6,11.6,25.5,7.5,25.5,7.5l23.8-11l-16.2-27.8H611z"/>
		<path fill="#2EA4DD" d="M593.1,219.3H460.9c-5.5,0-10-4.5-10-10v-31.2c0-5.5,4.5-10,10-10h132.2c5.5,0,10,4.5,10,10v31.2
			C603.1,214.8,598.6,219.3,593.1,219.3z"/>
		<g>
		</g>
		<polygon fill="#FDDDB8" points="433.7,164.5 408,148.1 441.8,145.1 449.9,149.2 		"/>
		<path fill="#E4C8A8" d="M443,101.1c0,0-3.5,11.3-6.4,14.2c0,0,2.3,7.5,0,9.9c0,0,4.1,1.5,5.5,5.5c0,0,5.8-9.7,9.7-9.7
			c0,0,18.4-0.2,6.8,11.4c-11.6,11.6-25.5,7.5-25.5,7.5l-23.8-11l16.2-27.8H443z"/>
		<path fill="#FFFFFF" d="M454.4,116.9c1.9,2.2,4.6,3.5,7.5,3.5h130.3c2.9,0,5.5-1.3,7.5-3.5L527,43L454.4,116.9z M454.4,116.9"/>
		<rect x="450.9" y="62.8" fill="#2EA4DD" width="152.2" height="145.4"/>
		<path fill="#FFFFFF" d="M527,186.7l-18.8-16.5l-55.5,46.7c2,1.9,3.1,2.6,9.1,2.4h130.3c4,0.4,6.7-0.1,8.7-2l-55-47.1L527,186.7z
			 M527,186.7"/>
		<path fill="#FFFFFF" d="M450.9,120.1v90.3l52.5-44.6L450.9,120.1z M450.9,120.1"/>
		<path fill="#FFFFFF" d="M550.5,165.8l52.5,44.6v-90.3L550.5,165.8z M550.5,165.8"/>
		<g>
			<path fill="#FFFFFF" d="M470.4,89.8h7.3v18c0,2.8,0.1,4.6,0.3,5.5c0.3,1.5,1.1,2.6,2.3,3.4c1.2,0.8,2.8,1.2,4.8,1.2
				c1.7,0,3.1-0.3,4.1-0.8c1.1-0.6,1.8-1.3,2.2-2.4c0.4-1,0.6-3.2,0.6-6.5V89.8h7.3v17.4c0,4.4-0.3,7.7-0.9,9.6
				c-0.6,2-2.1,3.6-4.3,4.8c-2.2,1.2-5.1,1.8-8.7,1.8c-3.8,0-6.7-0.5-8.8-1.5c-2.1-1-3.6-2.5-4.6-4.3c-1-1.8-1.4-5.3-1.4-10.2V89.8z
				"/>
			<path fill="#FFFFFF" d="M506.6,122.9V89.8h7.3v33.2H506.6z"/>
			<path fill="#FFFFFF" d="M519,112.1l7.1-0.6c0.8,4.2,3.4,6.4,7.9,6.4c2.2,0,3.9-0.4,5.2-1.3c1.3-0.9,1.9-1.9,1.9-3.2
				c0-0.8-0.2-1.4-0.7-1.9c-0.4-0.5-1.1-1-2-1.3s-3.1-0.9-6.5-1.7c-3.1-0.7-5.4-1.5-6.8-2.3c-1.4-0.8-2.6-1.9-3.4-3.3
				c-0.9-1.3-1.3-2.8-1.3-4.4c0-1.8,0.5-3.4,1.6-4.9c1.1-1.4,2.6-2.5,4.5-3.3s4.3-1.1,7.1-1.1c4.2,0,7.6,0.9,9.9,2.6
				c2.4,1.7,3.6,4.2,3.8,7.4l-7.3,0.3c-0.3-1.8-1-3-2.1-3.7s-2.6-1.1-4.5-1.1s-3.5,0.3-4.5,0.9c-1.1,0.6-1.6,1.4-1.6,2.3
				c0,0.9,0.5,1.7,1.4,2.3c1,0.6,3.2,1.3,6.6,2c3.7,0.8,6.3,1.6,7.9,2.5c1.6,0.9,2.9,2,3.7,3.4c0.9,1.4,1.3,3.1,1.3,5.1
				c0,2.9-1.2,5.3-3.5,7.3c-2.4,2-6,2.9-11,2.9C525,123.5,520,119.7,519,112.1z"/>
			<path fill="#FFFFFF" d="M554.6,122.9V89.8h7.3v14.8l14.7-14.8h9.8l-13.6,12.9l14.3,20.2h-9.4l-10-15.6l-5.9,5.6v10H554.6z"/>
		</g>
		<path fill="#FDDDB8" d="M466.8,128.5L436,134c0,0-0.9-4.3-5.5-5.5c0,0-0.4-5.7-3.2-8.4c0,0,6.4-9.9,6.4-11.6l14.5-2.9
			c0,0,0.9,1.3,2.5,2.9V81.2c-3.6-7.4-9.4-17.2-15.8-20.5l-13.9-29l-25.5,17.4l9.4,16.1c0,0-7.2,27-7.2,30c0,3,4.2,51.5,4.2,51.5
			l7.7,2.3l27.7,8.4l42.7-18.9C479.9,138.6,485.3,125,466.8,128.5z"/>
		<g>
		</g>
		<polygon fill="#FDDDB8" points="620.2,164.5 646,148.1 612.1,145.1 604,149.2 		"/>
		<path fill="#FDDDB8" d="M587.2,128.5l30.7,5.5c0,0,0.9-4.3,5.5-5.5c0,0,0.4-5.7,3.2-8.4c0,0-6.4-9.9-6.4-11.6l-14.5-2.9
			c0,0-0.9,1.3-2.5,2.9V81.2c3.6-7.4,9.4-17.2,15.8-20.5l13.9-29l25.5,17.4l-9.4,16.1c0,0,7.2,27,7.2,30c0,3-4.2,51.5-4.2,51.5
			l-7.7,2.3l-27.7,8.4L574,138.6C574,138.6,568.6,125,587.2,128.5z"/>
		<polygon fill="#FFFFFF" points="374.7,20.4 390.1,55.2 435.2,40.9 416.7,-2.1 421.7,-21.1 347.5,-21.1 		"/>
		<polygon fill="#FFFFFF" points="632.2,-21.1 637.2,-2.1 618.8,40.9 663.8,55.2 679.2,20.4 706.4,-21.1 		"/>
	</g>
	<g>
	</g>
	<g>
		<g>
			<g>
				<path fill="none" stroke="#FFFFFF" stroke-width="3" stroke-miterlimit="10" d="M141.2,297.4c0,0,1-0.1,3-0.3"/>
				<path fill="none" stroke="#FFFFFF" stroke-width="3" stroke-miterlimit="10" stroke-dasharray="5.9557,5.9557" d="M150.1,296.4
					c38.7-4.4,193.5-24.4,260-69.3"/>
				<path fill="none" stroke="#FFFFFF" stroke-width="3" stroke-miterlimit="10" d="M412.6,225.5c0.8-0.6,1.6-1.2,2.4-1.8"/>
			</g>
		</g>
		<g>
			<g>
				<line fill="none" stroke="#FFFFFF" stroke-width="3" stroke-miterlimit="10" x1="390.8" y1="227" x2="393.7" y2="226.5"/>
				
					<line fill="none" stroke="#FFFFFF" stroke-width="3" stroke-miterlimit="10" stroke-dasharray="6.7377,6.7377" x1="400.4" y1="225.5" x2="410.4" y2="223.9"/>
				<polyline fill="none" stroke="#FFFFFF" stroke-width="3" stroke-miterlimit="10" points="413.7,223.4 416.7,222.9 415.1,225.5 
									"/>
				
					<line fill="none" stroke="#FFFFFF" stroke-width="3" stroke-miterlimit="10" stroke-dasharray="4.7568,4.7568" x1="412.6" y1="229.5" x2="408.9" y2="235.6"/>
				<line fill="none" stroke="#FFFFFF" stroke-width="3" stroke-miterlimit="10" x1="407.7" y1="237.7" x2="406.2" y2="240.2"/>
			</g>
		</g>
	</g>
	<g>
		<g>
			<g>
				<path fill="none" stroke="#FFFFFF" stroke-width="3" stroke-miterlimit="10" d="M908.4,297.4c0,0-1-0.1-3-0.3"/>
				<path fill="none" stroke="#FFFFFF" stroke-width="3" stroke-miterlimit="10" stroke-dasharray="5.9557,5.9557" d="M899.5,296.4
					c-38.7-4.4-193.5-24.4-260-69.3"/>
				<path fill="none" stroke="#FFFFFF" stroke-width="3" stroke-miterlimit="10" d="M637,225.5c-0.8-0.6-1.6-1.2-2.4-1.8"/>
			</g>
		</g>
		<g>
			<g>
				<line fill="none" stroke="#FFFFFF" stroke-width="3" stroke-miterlimit="10" x1="658.8" y1="227" x2="655.8" y2="226.5"/>
				
					<line fill="none" stroke="#FFFFFF" stroke-width="3" stroke-miterlimit="10" stroke-dasharray="6.7377,6.7377" x1="649.2" y1="225.5" x2="639.2" y2="223.9"/>
				<polyline fill="none" stroke="#FFFFFF" stroke-width="3" stroke-miterlimit="10" points="635.9,223.4 632.9,222.9 634.5,225.5 
									"/>
				
					<line fill="none" stroke="#FFFFFF" stroke-width="3" stroke-miterlimit="10" stroke-dasharray="4.7568,4.7568" x1="636.9" y1="229.5" x2="640.6" y2="235.6"/>
				<line fill="none" stroke="#FFFFFF" stroke-width="3" stroke-miterlimit="10" x1="641.9" y1="237.7" x2="643.4" y2="240.2"/>
			</g>
		</g>
	</g>
	<g>
		<path fill="none" stroke="#FFFFFF" stroke-width="3" stroke-miterlimit="10" stroke-dasharray="6" d="M643.6,177
			c0,0,265.3-26.9,333.2-119.2"/>
		<g>
			<g>
				<line fill="none" stroke="#FFFFFF" stroke-width="3" stroke-miterlimit="10" x1="659.7" y1="163.3" x2="657.1" y2="164.8"/>
				
					<line fill="none" stroke="#FFFFFF" stroke-width="3" stroke-miterlimit="10" stroke-dasharray="7.5324,7.5324" x1="650.7" y1="168.7" x2="641" y2="174.5"/>
				<polyline fill="none" stroke="#FFFFFF" stroke-width="3" stroke-miterlimit="10" points="637.7,176.4 635.1,177.9 637.9,179.1 
									"/>
				
					<line fill="none" stroke="#FFFFFF" stroke-width="3" stroke-miterlimit="10" stroke-dasharray="7.3813,7.3813" x1="644.7" y1="182" x2="654.9" y2="186.3"/>
				<line fill="none" stroke="#FFFFFF" stroke-width="3" stroke-miterlimit="10" x1="658.3" y1="187.8" x2="661" y2="189"/>
			</g>
		</g>
	</g>
	<g>
		<path fill="none" stroke="#FFFFFF" stroke-width="3" stroke-miterlimit="10" stroke-dasharray="6" d="M409.8,177
			c0,0-265.3-26.9-333.2-119.2"/>
		<g>
			<g>
				<line fill="none" stroke="#FFFFFF" stroke-width="3" stroke-miterlimit="10" x1="393.8" y1="163.3" x2="396.3" y2="164.8"/>
				
					<line fill="none" stroke="#FFFFFF" stroke-width="3" stroke-miterlimit="10" stroke-dasharray="7.5324,7.5324" x1="402.8" y1="168.7" x2="412.5" y2="174.5"/>
				<polyline fill="none" stroke="#FFFFFF" stroke-width="3" stroke-miterlimit="10" points="415.7,176.4 418.3,177.9 415.6,179.1 
									"/>
				
					<line fill="none" stroke="#FFFFFF" stroke-width="3" stroke-miterlimit="10" stroke-dasharray="7.3813,7.3813" x1="408.8" y1="182" x2="398.6" y2="186.3"/>
				<line fill="none" stroke="#FFFFFF" stroke-width="3" stroke-miterlimit="10" x1="395.2" y1="187.8" x2="392.4" y2="189"/>
			</g>
		</g>
	</g>
	<g opacity="0.67">
		<path fill-rule="evenodd" clip-rule="evenodd" fill="#FFFFFF" d="M500.8,265c-7.6-30.7,52.5-35.2,49.8-1c0,0-0.1,2.7,1.6,1.5
			c14.3-16.6,29.7,0.8,23.1,11.6c10.4,2.7,14.9,8.3,15,13.8H450.5l0,0c-1.3-12,8.9-26.3,30.1-19.9
			C476.4,258.7,496.9,254.8,500.8,265c-0.1,0.3-0.2,0.5-0.2,0.8c0,1,0.8,1.7,1.7,1.7"/>
		<path fill-rule="evenodd" clip-rule="evenodd" fill="#FFFFFF" d="M922.1,259.4c-4-16.1,27.6-18.5,26.2-0.5c0,0,0,1.4,0.8,0.8
			c7.5-8.7,15.7,0.4,12.1,6.1c5.5,1.4,7.8,4.4,7.9,7.3h-73.6l0,0c-0.7-6.3,4.7-13.8,15.9-10.5C909.3,256.1,920,254,922.1,259.4
			c-0.1,0.1-0.1,0.3-0.1,0.4c0,0.5,0.4,0.9,0.9,0.9"/>
		<path fill-rule="evenodd" clip-rule="evenodd" fill="#FFFFFF" d="M810.9,69.6c-7.4-29.7,50.9-34.2,48.3-1c0,0-0.1,2.6,1.6,1.5
			c13.8-16.1,28.8,0.8,22.4,11.3c10.1,2.6,14.4,8,14.6,13.4H762.1l0,0c-1.2-11.7,8.6-25.5,29.2-19.2
			C787.3,63.6,807.1,59.8,810.9,69.6c-0.1,0.3-0.2,0.5-0.2,0.7c0,0.9,0.8,1.7,1.7,1.7"/>
		<path fill-rule="evenodd" clip-rule="evenodd" fill="#FFFFFF" d="M155.4,225c-8.3-33.3,57-38.2,54.1-1.1c0,0-0.1,3,1.7,1.6
			c15.5-18,32.3,0.9,25,12.6c11.3,2.9,16.1,9,16.3,15H100.8l0,0c-1.4-13.1,9.6-28.5,32.7-21.6C128.9,218.2,151.1,213.9,155.4,225
			c-0.1,0.3-0.2,0.6-0.2,0.8c0,1,0.8,1.9,1.9,1.9"/>
		<path fill-rule="evenodd" clip-rule="evenodd" fill="#FFFFFF" d="M280.4,101.6c-4-16.1,27.6-18.5,26.2-0.5c0,0,0,1.4,0.8,0.8
			c7.5-8.7,15.7,0.4,12.1,6.1c5.5,1.4,7.8,4.4,7.9,7.3H254l0,0c-0.7-6.3,4.7-13.8,15.9-10.5C267.6,98.3,278.4,96.2,280.4,101.6
			c-0.1,0.1-0.1,0.3-0.1,0.4c0,0.5,0.4,0.9,0.9,0.9"/>
	</g>
</g>
<g>
</g>
<g>
</g>
<g>
</g>
<g>
</g>
<g>
</g>
<g>
</g>
</svg>
